<?xml version="1.0" encoding="UTF-8"?>
<svg id="Layer_2" data-name="Layer 2" xmlns="http://www.w3.org/2000/svg" viewBox="0 0 329.67 332.29">
  <defs>
    <style>
      .cls-1 {
        fill: #fff;
        stroke: #000;
        stroke-miterlimit: 10;
        stroke-width: 3px;
      }
    </style>
  </defs>
  <g id="Layer_1-2" data-name="Layer 1">
    <g>
      <g>
        <rect class="cls-1" x="87.85" y="-11.13" width="42.29" height="354.55" transform="translate(97.67 -32.24) rotate(30)"/>
        <rect class="cls-1" x="199.53" y="-11.13" width="42.29" height="354.55" transform="translate(494.86 199.69) rotate(150)"/>
        <path class="cls-1" d="M87.85-11.13h0c23.34,0,42.29,18.95,42.29,42.29V343.42h0c-23.34,0-42.29-18.95-42.29-42.29V-11.13h0Z" transform="translate(97.67 -32.24) rotate(30)"/>
        <path class="cls-1" d="M199.53-11.13h0c23.34,0,42.29,18.95,42.29,42.29V343.42h0c-23.34,0-42.29-18.95-42.29-42.29V-11.13h0Z" transform="translate(494.86 199.69) rotate(150)"/>
      </g>
      <g>
        <path class="cls-1" d="M241.25,159.45l-24.41,42.28-27.59,47.78h0c-10.85,18.8-37.98,18.8-48.83,0h0s24.42-42.28,24.42-42.28h0s27.58-47.79,27.58-47.79l24.42-42.28,24.41,42.29Z"/>
        <path class="cls-1" d="M189.25,249.51h0c-10.85,18.8-37.98,18.8-48.83,0h0s-27.59-47.78-27.59-47.78l-24.41-42.28,24.42-42.29,24.41,42.28,27.59,47.78h0s24.41,42.29,24.41,42.29Z"/>
      </g>
    </g>
  </g>
</svg>