<?xml version="1.0" encoding="UTF-8"?>
<svg id="Layer_2" data-name="Layer 2" xmlns="http://www.w3.org/2000/svg" viewBox="0 0 329.67 318.98">
  <defs>
    <style>
      .cls-1 {
        fill: #fff;
        stroke: #000;
        stroke-miterlimit: 10;
        stroke-width: 3px;
      }
    </style>
  </defs>
  <g id="Layer_1-2" data-name="Layer 1">
    <g>
      <path class="cls-1" d="M87.85-11.13h42.29V307.05c0,20.07-16.29,36.36-36.36,36.36h-5.92V-11.13h0Z" transform="translate(97.67 -32.24) rotate(30)"/>
      <path class="cls-1" d="M199.53-11.13h5.92c20.07,0,36.36,16.29,36.36,36.36V343.42h-42.29V-11.13h0Z" transform="translate(494.86 199.69) rotate(150)"/>
      <g>
        <path class="cls-1" d="M199.53-24.43h42.29V293.75c0,20.07-16.29,36.36-36.36,36.36h-5.92V-24.43h0Z" transform="translate(335.37 395.54) rotate(-150)"/>
        <path class="cls-1" d="M87.85-24.43h5.92c20.07,0,36.36,16.29,36.36,36.36V330.11h-42.29V-24.43h0Z" transform="translate(-61.82 74.97) rotate(-30)"/>
      </g>
    </g>
  </g>
</svg>