<?xml version="1.0" encoding="UTF-8"?>
<svg id="Layer_2" data-name="Layer 2" xmlns="http://www.w3.org/2000/svg" viewBox="0 0 329.68 318.44">
  <defs>
    <style>
      .cls-1 {
        fill: #fff;
        stroke: #000;
        stroke-miterlimit: 10;
        stroke-width: 3px;
      }
    </style>
  </defs>
  <g id="Layer_1-2" data-name="Layer 1">
    <g>
      <path class="cls-1" d="M215.94,23.19l-26.69,46.23-24.41,42.29-27.59,47.78-24.42,42.29-55.98,96.97c-10.04,17.39-32.28,23.35-49.67,13.31l-5.13-2.96L88.42,159.5l24.42-42.29,27.58-47.79,24.42-42.28,14.48-25.09,36.62,21.14Z"/>
      <path class="cls-1" d="M327.63,309.1l-5.13,2.96c-17.4,10.04-39.63,4.08-49.68-13.31l-55.98-96.97-24.42-42.29-27.58-47.78-24.42-42.29-26.69-46.23L150.35,2.05l14.49,25.09,24.41,42.28,27.59,47.79,24.41,42.29,86.38,149.6Z"/>
      <g>
        <path class="cls-1" d="M241.25,159.5l-24.41,42.28-27.59,47.78h0c-10.85,18.8-37.98,18.8-48.83,0h0s24.42-42.28,24.42-42.28h0s27.58-47.79,27.58-47.79l24.42-42.28,24.41,42.29Z"/>
        <path class="cls-1" d="M189.25,249.56h0c-10.85,18.8-37.98,18.8-48.83,0h0s-27.59-47.78-27.59-47.78l-24.41-42.28,24.42-42.29,24.41,42.28,27.59,47.78h0s24.41,42.29,24.41,42.29Z"/>
      </g>
    </g>
  </g>
</svg>