<?xml version="1.0" encoding="UTF-8"?>
<svg id="Layer_2" data-name="Layer 2" xmlns="http://www.w3.org/2000/svg" viewBox="0 0 496 496">
  <defs>
    <style>
      .cls-1 {
        fill: #f6eee1;
      }
    </style>
  </defs>
  <g id="Layer_1-2" data-name="Layer 1">
    <path class="cls-1" d="M248,0C111,0,0,111,0,248s111,248,248,248,248-111,248-248S385,0,248,0Zm121.8,169.9l-40.7,191.8c-3,13.6-11.1,16.9-22.4,10.5l-62-45.7-29.9,28.8c-3.3,3.3-6.1,6.1-12.5,6.1l4.4-63.1,114.9-103.8c5-4.4-1.1-6.9-7.7-2.5l-142,89.4-61.2-19.1c-13.3-4.2-13.6-13.3,2.8-19.7l239.1-92.2c11.1-4,20.8,2.7,17.2,19.5Z"/>
  </g>
</svg>