<svg width="138" height="138" viewBox="0 0 138 138" fill="none" xmlns="http://www.w3.org/2000/svg">
<path d="M18.3973 126.904L0.966797 116.832L1.28775 95.5101L1.6087 74.1881L16.3583 65.7219L31.1079 57.2568L31.6979 39.2292L32.2878 21.2017L50.693 10.7684L69.0981 0.333984L87.5174 10.654L105.935 20.9751L105.986 38.887L106.036 56.8013L121.965 65.7927L137.895 74.784V115.802L134.65 118.046C130.056 121.224 101.481 137.202 100.392 137.202C99.8952 137.202 92.9145 133.485 84.8801 128.942C76.8458 124.399 69.7117 120.682 69.0249 120.682C68.3382 120.682 61.2549 124.399 53.2842 128.942C45.3123 133.485 38.124 137.151 37.3098 137.089C36.4956 137.026 27.9845 132.443 18.3973 126.904ZM31.6861 109.768L31.6743 98.853L22.8741 93.8381C18.035 91.0793 13.5264 88.8232 12.8561 88.8232C12.1104 88.8232 11.6384 92.9059 11.6384 99.3733V109.923L21.3731 115.28C26.7278 118.228 31.2412 120.649 31.4029 120.661C31.5657 120.673 31.6931 115.77 31.6861 109.768ZM54.1727 115.269L63.557 109.856V87.5949L57.3621 91.2292C53.9556 93.2292 49.4422 95.7272 47.3324 96.7821L43.4975 98.6996V109.691C43.4975 115.736 43.5542 121.023 43.7371 120.719C43.9813 120.313 49.0115 118.247 54.1727 115.269ZM94.2361 109.707V98.7314L85.528 93.7756C80.7385 91.051 76.4906 88.8221 76.0882 88.8221C75.687 88.8221 75.359 93.7331 75.3602 99.7368L75.3637 110.651L84.5049 115.638C89.5328 118.38 93.7795 120.638 93.9411 120.653C94.104 120.668 94.2361 115.742 94.2361 109.706V109.707ZM116.711 115.269L126.095 109.856V87.5949L119.9 91.2292C116.494 93.2292 111.98 95.7272 109.871 96.7821L106.036 98.6996V109.691C106.036 115.736 106.326 120.682 106.681 120.682C107.035 120.682 111.55 118.247 116.711 115.269ZM47.0374 83.76C51.9048 80.9883 55.7243 78.2059 55.5261 77.577C55.3267 76.9481 51.2428 74.3085 46.451 71.7126L37.7369 66.9927L30.2925 71.0235C17.0887 78.1705 17.2716 77.2808 27.7509 83.3871C32.8424 86.3536 37.2732 88.7843 37.5977 88.7902C37.9222 88.7949 42.1701 86.5318 47.0374 83.76ZM109.107 84.0361C113.877 81.4036 118.063 78.7888 118.411 78.2271C119.118 77.0838 102.541 67.5532 99.992 67.6369C99.0976 67.6664 94.4485 69.9969 89.659 72.817L80.9509 77.9463L90.249 83.3624C95.363 86.343 99.7466 88.7902 99.9908 88.802C100.235 88.8138 104.338 86.6686 109.107 84.0361ZM63.557 56.5925V45.6011L59.7221 43.6836C57.6135 42.6287 53.1001 40.1307 49.6924 38.1307L43.4975 34.4964V56.7517L52.6423 62.1112C57.6725 65.0587 62.1858 67.4953 62.672 67.5272C63.1593 67.5579 63.557 62.6374 63.557 56.5925ZM85.6814 61.8008L94.2361 56.8603V34.7182L84.7964 40.067L75.3566 45.4146V56.5689C75.3566 62.7023 75.7555 67.5013 76.2416 67.231C76.7289 66.962 80.9768 64.5171 85.6814 61.7996V61.8008ZM79.2977 29.9925C89.7074 24.1752 89.9198 25.1133 76.5366 17.7715L68.8668 13.5638L59.1651 19.1332L49.4634 24.7027L59.1651 30.1954C64.5009 33.2161 69.1441 35.5643 69.4828 35.4109C69.8214 35.2598 74.238 32.8208 79.2989 29.9925H79.2977Z" fill="#D40000"/>
</svg>
